<svg width="465" height="465" viewBox="0 0 465 465" fill="none" xmlns="http://www.w3.org/2000/svg">
<rect width="465" height="465" fill="white"/>
<rect width="465" height="465" fill="#363069"/>
<g filter="url(#filter0_d_3_7)">
<path d="M91.3737 292.784C84.4873 292.784 78.3359 291.507 72.9196 288.954C67.5032 286.478 63.2476 283.035 60.1525 278.624C57.0575 274.214 55.5099 269.184 55.5099 263.536C55.5099 261.988 55.626 259.976 55.8581 257.5C56.0903 254.947 56.3998 252.123 56.7867 249.028C57.1735 245.933 57.5991 242.76 58.0634 239.51C58.605 236.183 59.1079 232.972 59.5722 229.877L77.0979 232.198C76.3241 237.383 75.6277 242.103 75.0087 246.358C74.4671 250.537 74.0415 254.096 73.732 257.036C73.4225 259.899 73.2677 262.027 73.2677 263.42C73.2677 266.283 73.9641 268.759 75.3569 270.848C76.7497 273.014 78.8001 274.678 81.5083 275.839C84.2164 276.999 87.5049 277.579 91.3737 277.579C95.4747 277.579 98.7245 276.96 101.123 275.722C103.522 274.562 105.224 272.976 106.23 270.964C107.236 269.029 107.739 266.824 107.739 264.348V205.62H125.497V264.348C125.497 270.074 124.026 275.065 121.086 279.32C118.146 283.576 114.084 286.865 108.899 289.186C103.793 291.585 97.9507 292.784 91.3737 292.784ZM81.7404 199.933V185.773H99.6143V199.933H81.7404Z" fill="white"/>
<path d="M162.166 293.945C159.225 293.945 156.169 293.712 152.996 293.248C149.824 292.861 146.497 292.281 143.015 291.507L145.684 277.347C149.476 277.812 152.687 278.16 155.318 278.392C158.026 278.624 160.308 278.74 162.166 278.74C167.427 278.74 171.219 277.812 173.54 275.955C175.861 274.098 177.022 271.273 177.022 267.482V218.271L180.62 220.824H167.737C165.106 220.824 162.901 221.172 161.121 221.869C159.341 222.488 157.987 223.842 157.059 225.931C156.208 227.943 155.782 231.077 155.782 235.332C155.782 239.278 156.169 242.219 156.943 244.153C157.716 246.087 158.993 247.364 160.773 247.983C162.552 248.525 164.874 248.796 167.737 248.796H177.022V264H167.737C161.237 264 155.743 262.955 151.256 260.866C146.845 258.777 143.518 255.605 141.274 251.349C139.107 247.093 138.024 241.754 138.024 235.332C138.024 228.833 139.107 223.378 141.274 218.967C143.518 214.557 146.845 211.23 151.256 208.986C155.743 206.742 161.237 205.62 167.737 205.62H194.78V267.482C194.78 272.898 193.425 277.579 190.717 281.526C188.009 285.549 184.218 288.606 179.343 290.695C174.468 292.861 168.742 293.945 162.166 293.945Z" fill="white"/>
<path d="M255.098 264V248.796H267.169V264H255.098ZM207.164 264V248.796H248.947L237.341 258.777V241.251C237.341 235.913 236.799 231.773 235.716 228.833C234.632 225.892 232.853 223.842 230.377 222.681C227.901 221.443 224.496 220.824 220.163 220.824H210.762V205.62H220.163C227.669 205.62 234.013 206.858 239.198 209.334C244.382 211.81 248.328 215.679 251.036 220.94C253.744 226.124 255.098 232.895 255.098 241.251V264H207.164ZM267.169 264V248.796C268.098 248.796 268.717 249.492 269.026 250.885C269.336 252.2 269.49 254.019 269.49 256.34C269.49 258.661 269.336 260.518 269.026 261.911C268.717 263.304 268.098 264 267.169 264Z" fill="white"/>
<path d="M267.127 264V248.796H289.992L279.198 257.733V205.62H296.956V264H267.127ZM267.127 264C266.276 264 265.696 263.304 265.386 261.911C264.999 260.518 264.806 258.661 264.806 256.34C264.806 254.019 264.999 252.2 265.386 250.885C265.696 249.492 266.276 248.796 267.127 248.796V264ZM279.198 194.826V180.666H297.072V194.826H279.198Z" fill="white"/>
<path d="M333.066 264V248.796H345.949V264H333.066ZM315.424 264V182.407H333.066V264H315.424ZM345.949 264V248.796C346.878 248.796 347.497 249.492 347.806 250.885C348.116 252.2 348.271 254.019 348.271 256.34C348.271 258.661 348.116 260.518 347.806 261.911C347.497 263.304 346.878 264 345.949 264ZM311.362 173.702L304.282 168.479L310.666 158.382H320.763C321.924 159.233 323.278 159.891 324.826 160.355C326.373 160.819 327.921 161.051 329.468 161.051C331.17 161.051 332.795 160.819 334.343 160.355C335.89 159.891 337.167 159.233 338.173 158.382L343.628 162.212C342.622 163.759 341.345 165.307 339.798 166.854C338.25 168.325 336.393 169.524 334.227 170.452C332.138 171.304 329.662 171.729 326.799 171.729C324.942 171.729 323.123 171.497 321.344 171.033C319.641 170.568 318.055 169.833 316.585 168.828L311.362 173.702Z" fill="white"/>
<path d="M345.901 264V248.796H395.344L389.193 253.554V234.752C389.193 230.264 387.8 226.86 385.015 224.538C382.229 222.14 377.741 220.94 371.551 220.94C369.849 220.94 367.566 221.056 364.704 221.288C361.841 221.521 358.707 221.869 355.302 222.333L353.677 208.405C356.927 207.632 360.216 206.974 363.543 206.432C366.947 205.891 370.236 205.62 373.408 205.62C379.908 205.62 385.672 206.819 390.702 209.218C395.731 211.539 399.678 214.866 402.54 219.199C405.481 223.455 406.951 228.639 406.951 234.752V264H345.901ZM345.901 264C345.05 264 344.47 263.304 344.16 261.911C343.773 260.518 343.58 258.661 343.58 256.34C343.58 254.019 343.773 252.2 344.16 250.885C344.47 249.492 345.05 248.796 345.901 248.796V264ZM364.471 196.103V181.943H382.345V196.103H364.471Z" fill="white"/>
</g>
<defs>
<filter id="filter0_d_3_7" x="50.7144" y="158.382" width="361.032" height="145.154" filterUnits="userSpaceOnUse" color-interpolation-filters="sRGB">
<feFlood flood-opacity="0" result="BackgroundImageFix"/>
<feColorMatrix in="SourceAlpha" type="matrix" values="0 0 0 0 0 0 0 0 0 0 0 0 0 0 0 0 0 0 127 0" result="hardAlpha"/>
<feOffset dy="4.79558"/>
<feGaussianBlur stdDeviation="2.39779"/>
<feComposite in2="hardAlpha" operator="out"/>
<feColorMatrix type="matrix" values="0 0 0 0 0 0 0 0 0 0 0 0 0 0 0 0 0 0 0.25 0"/>
<feBlend mode="normal" in2="BackgroundImageFix" result="effect1_dropShadow_3_7"/>
<feBlend mode="normal" in="SourceGraphic" in2="effect1_dropShadow_3_7" result="shape"/>
</filter>
</defs>
</svg>
